# xmcd CD database file generated by Grip 2.96
# 
# Track frame offsets:
#       150
#       11025
#       23325
#       41346
#       52994
#       67780
#       82875
#       98767
#       111796
#       129549
#       146821
#       163461
#       180491
#       195745
#       212095
#       226956
# 
# Disc length: 3161 seconds
# 
# Revision: 0
# Processed by: cddbd v1.4PL0 Copyright (c) Steve Scherf et al.
# Submitted via: Grip 2.96
# 
DISCID=cc0c5710
DTITLE=Stefan George - Point and Pray
DYEAR=1900
DGENRE=
TTITLE0=I'm Movin'
TTITLE1=Out on the Street Again
TTITLE2=How Blue
TTITLE3=Southern Pacific
TTITLE4=Wrong Side of Life
TTITLE5=Walk On
TTITLE6=Cloud of Dust
TTITLE7=My Old Friend the Blues
TTITLE8=Cold Fish Sandwich
TTITLE9=Willy's Waltz
TTITLE10=The Wonder Bar
TTITLE11=Way Back Home
TTITLE12=Love Me Well or Not at All
TTITLE13=Blue
TTITLE14=Thanks
TTITLE15=Uke Lullabye
EXTD=
EXTT0=
EXTT1=
EXTT2=
EXTT3=
EXTT4=
EXTT5=
EXTT6=
EXTT7=
EXTT8=
EXTT9=
EXTT10=
EXTT11=
EXTT12=
EXTT13=
EXTT14=
EXTT15=
PLAYORDER=
